<?xml version="1.0" encoding="UTF-8"?>
<!DOCTYPE svg PUBLIC "-//W3C//DTD SVG 1.1//EN" "http://www.w3.org/Graphics/SVG/1.1/DTD/svg11.dtd">
<!-- Creator: CorelDRAW -->
<svg xmlns="http://www.w3.org/2000/svg" xml:space="preserve" width="6.82666in" height="6.82666in" style="shape-rendering:geometricPrecision; text-rendering:geometricPrecision; image-rendering:optimizeQuality; fill-rule:evenodd; clip-rule:evenodd"
viewBox="0 0 6.82666 6.82666"
 xmlns:xlink="http://www.w3.org/1999/xlink">
 <defs>
  <style type="text/css">
   <![CDATA[
    .fil0 {fill:none}
    .fil2 {fill:#8BC34A}
    .fil1 {fill:#333333;fill-rule:nonzero}
   ]]>
  </style>
 </defs>
 <g id="Layer_x0020_1">
  <metadata id="CorelCorpID_0Corel-Layer"/>
  <g id="_660950368">
   <rect id="_660950416" class="fil0" width="6.82666" height="6.82666"/>
   <rect id="_660950536" class="fil0" x="0.853331" y="0.853331" width="5.12" height="5.12"/>
  </g>
  <g id="_660949480">
   <path id="_660950032" class="fil1" d="M5.61147 2.79441c-0.775476,-0.0242874 -1.19504,0.184937 -1.37844,0.458236 -0.174138,0.259496 -0.134315,0.580311 0.0143543,0.802051 0.141323,0.210787 0.383815,0.328075 0.6275,0.199429 0.273673,-0.14448 0.554441,-0.572362 0.736587,-1.45972zm-1.55511 0.339906c0.230283,-0.343154 0.745768,-0.603346 1.68944,-0.546843l0.120394 0.0072126 -0.022063 0.118205c-0.195,1.04465 -0.533996,1.55214 -0.870083,1.72957 -0.35665,0.18828 -0.704591,0.027 -0.903335,-0.269429 -0.191398,-0.285469 -0.241287,-0.700543 -0.0143543,-1.03871z"/>
   <path id="_660950224" class="fil1" d="M4.99296 3.53069c0.0540748,-0.0230079 0.0792598,-0.0855079 0.056252,-0.139583 -0.0230079,-0.0540748 -0.0855079,-0.0792598 -0.139583,-0.056252 -0.32461,0.139114 -0.702752,0.579575 -0.972752,1.10135 -0.242567,0.468756 -0.401933,1.00852 -0.360941,1.45948 0.00529134,0.0584488 0.0569685,0.101543 0.115417,0.096252 0.0584488,-0.00529134 0.101543,-0.0569685 0.096252,-0.115417 -0.0370551,-0.40765 0.112142,-0.905496 0.338437,-1.34281 0.249102,-0.481394 0.586587,-0.882886 0.866917,-1.00302z"/>
   <g>
    <path id="_660950320" class="fil1" d="M2.10463 1.51861c-0.055689,-0.0184094 -0.11576,0.011811 -0.134169,0.0675 -0.0184094,0.055689 0.011811,0.11576 0.0675,0.134169 0.404697,0.134898 0.796335,0.64376 1.09839,1.24191 0.370504,0.733697 0.600122,1.59162 0.556744,2.06881 -0.00529134,0.0584488 0.0378031,0.110126 0.096252,0.115417 0.0584488,0.00529134 0.110126,-0.0378031 0.115417,-0.096252 0.0466142,-0.512783 -0.191929,-1.41847 -0.578413,-2.18381 -0.324386,-0.642362 -0.757012,-1.19285 -1.22172,-1.34775z"/>
    <path id="_660949792" class="fil1" d="M1.21927 1.06757c0.211685,0.833512 0.563638,1.21535 0.911028,1.326 0.329685,0.105012 0.658441,-0.0363543 0.84824,-0.262843 0.181374,-0.216433 0.231232,-0.512165 0.0177165,-0.733063 -0.237787,-0.246008 -0.778626,-0.411941 -1.77698,-0.330091zm0.846862 1.5285c-0.427551,-0.136185 -0.855205,-0.595933 -1.08277,-1.60004l-0.0265984 -0.117358 0.119933 -0.011811c1.15243,-0.113461 1.78587,0.0863583 2.07289,0.383299 0.302323,0.312776 0.239756,0.721925 -0.00771654,1.01724 -0.239047,0.285256 -0.655579,0.462504 -1.07574,0.328677z"/>
   </g>
  </g>
  <path class="fil2" d="M1.21927 1.06757c0.211685,0.833512 0.563638,1.21535 0.911028,1.326 0.220142,0.070122 0.43987,0.0303858 0.618091,-0.071189 -0.220252,-0.297177 -0.462898,-0.519594 -0.710429,-0.602102 -0.055689,-0.0184094 -0.0859094,-0.0784803 -0.0675,-0.134169 0.0184094,-0.055689 0.0784803,-0.0859094 0.134169,-0.0675 0.289657,0.0965512 0.566846,0.346787 0.81313,0.677165 0.0215512,-0.0207283 0.0418543,-0.0424646 0.0607795,-0.0650472 0.181374,-0.216433 0.231232,-0.512165 0.0177165,-0.733063 -0.237787,-0.246008 -0.778626,-0.411941 -1.77698,-0.330091z"/>
  <path class="fil2" d="M5.61147 2.79441c-0.775476,-0.0242874 -1.19504,0.184937 -1.37844,0.458236 -0.157713,0.235016 -0.139925,0.520331 -0.0247244,0.736791 0.223346,-0.314768 0.475311,-0.557717 0.701327,-0.654579 0.0540748,-0.0230079 0.116575,0.00217717 0.139583,0.056252 0.0230079,0.0540748 -0.00217717,0.116575 -0.056252,0.139583 -0.205209,0.0879449 -0.441047,0.326657 -0.650421,0.637114 0.142319,0.134504 0.336949,0.189472 0.532343,0.0863189 0.273673,-0.14448 0.554441,-0.572362 0.736587,-1.45972z"/>
 </g>
</svg>
